# xmcd CD database file
#
# Track frame offsets:
#	150
#	15942
#	28567
#	45217
#	57220
#	70600
#	82605
#	97717
#	114222
#	124870
#	138820
#	150850
#	165642
#	181282
#
# Disc length: 2610 seconds
#
# Revision: 0
# Processed by: cddbd v1.5.1PL0 Copyright (c) Steve Scherf et al.
# Submitted via: CDex 1.51
#
DISCID=870a300e
DTITLE=Dolly Parton and Porter Wagoner - Most Requested
DYEAR=1975
DGENRE=Country
TTITLE0=Little Boys Prayer
TTITLE1=Jeannie's Afraid Of The Dark
TTITLE2=Waldo The Weirdo
TTITLE3=Jolene
TTITLE4=The Party
TTITLE5=Silver Sandles
TTITLE6=Charley's Picture
TTITLE7=Brother Harold Dee
TTITLE8=Love Is Like A Butterfly
TTITLE9=Coat Of Many Colours
TTITLE10=Just The Two Of Us
TTITLE11=Pastors Absent On Vacation
TTITLE12=House Of Shame
TTITLE13=Cold Hard Facts Of Life
EXTD=YEAR: 1975
EXTT0=
EXTT1=
EXTT2=
EXTT3=
EXTT4=
EXTT5=
EXTT6=
EXTT7=
EXTT8=
EXTT9=
EXTT10=
EXTT11=
EXTT12=
EXTT13=
PLAYORDER=
